<svg xmlns="http://www.w3.org/2000/svg" xmlns:xlink="http://www.w3.org/1999/xlink" viewBox="0 0 1080 1080" width="1080" height="1080" preserveAspectRatio="xMidYMid meet" style="width: 100%; height: 100%; transform: translate3d(0px, 0px, 0px); content-visibility: visible;"><defs><clipPath id="__lottie_element_2875"><rect width="1080" height="1080" x="0" y="0"/></clipPath></defs><g clip-path="url(#__lottie_element_2875)"><g transform="matrix(1,0,0,1,512.0029907226562,516)" opacity="1" style="display: block;"><g opacity="1" transform="matrix(1,0,0,1,0,0)"><path stroke-linecap="butt" stroke-linejoin="miter" fill-opacity="0" stroke-miterlimit="4" stroke="rgb(250,49,68)" stroke-opacity="1" stroke-width="125" d=" M27.999000549316406,371.125 C19.41078758239746,369.3221130371094 11.104668617248535,364.0421447753906 4.135180950164795,356.177978515625 C-92.46614837646484,247.1770477294922 -130.846923828125,181.85739135742188 -151.2174835205078,142.81996154785156 C-192.85015869140625,63.03622055053711 -211.96786499023438,-14.966519355773926 -211.42649841308594,-98.89903259277344 C-210.80508422851562,-195.15560913085938 -159.88291931152344,-284.0196838378906 -92.8183364868164,-297.9785461425781 C-40.10487365722656,-308.9504699707031 -1.5937227010726929,-272.6722717285156 21.934032440185547,-239.84959411621094 C23.455791473388672,-237.7264404296875 25.6668643951416,-236.76022338867188 27.999000549316406,-237.125 C30.338136672973633,-237.49078369140625 32.57720947265625,-239.15054321289062 34.108951568603516,-241.78338623046875 C58.533470153808594,-283.76849365234375 102.1639404296875,-338.5619812011719 169.2870330810547,-352.5332336425781 C270.5244140625,-373.604248046875 362.6549987792969,-283.13397216796875 363.8552551269531,-148.39859008789062 C364.90350341796875,-30.68819808959961 328.3966064453125,77.13909912109375 256.27606201171875,175.34718322753906 C224.2196502685547,218.9998016357422 168.63677978515625,284.5953674316406 52.566707611083984,366.0278625488281 C45.25526809692383,371.15777587890625 36.67519760131836,372.9208679199219 27.999000549316406,371.125 C27.999000549316406,371.125 27.999000549316406,371.125 27.999000549316406,371.125z"/><path fill="rgb(250,49,68)" fill-opacity="1" d=" M27.999000549316406,371.125 C19.41078758239746,369.3221130371094 11.104668617248535,364.0421447753906 4.135180950164795,356.177978515625 C-92.46614837646484,247.1770477294922 -130.846923828125,181.85739135742188 -151.2174835205078,142.81996154785156 C-192.85015869140625,63.03622055053711 -211.96786499023438,-14.966519355773926 -211.42649841308594,-98.89903259277344 C-210.80508422851562,-195.15560913085938 -159.88291931152344,-284.0196838378906 -92.8183364868164,-297.9785461425781 C-40.10487365722656,-308.9504699707031 -1.5937227010726929,-272.6722717285156 21.934032440185547,-239.84959411621094 C23.455791473388672,-237.7264404296875 25.6668643951416,-236.76022338867188 27.999000549316406,-237.125 C30.338136672973633,-237.49078369140625 32.57720947265625,-239.15054321289062 34.108951568603516,-241.78338623046875 C58.533470153808594,-283.76849365234375 102.1639404296875,-338.5619812011719 169.2870330810547,-352.5332336425781 C270.5244140625,-373.604248046875 362.6549987792969,-283.13397216796875 363.8552551269531,-148.39859008789062 C364.90350341796875,-30.68819808959961 328.3966064453125,77.13909912109375 256.27606201171875,175.34718322753906 C224.2196502685547,218.9998016357422 168.63677978515625,284.5953674316406 52.566707611083984,366.0278625488281 C45.25526809692383,371.15777587890625 36.67519760131836,372.9208679199219 27.999000549316406,371.125 C27.999000549316406,371.125 27.999000549316406,371.125 27.999000549316406,371.125z"/></g></g></g></svg>